<?xml version="1.0" encoding="utf-8"?>
<!-- Generator: Adobe Illustrator 17.1.0, SVG Export Plug-In . SVG Version: 6.00 Build 0)  -->
<!DOCTYPE svg PUBLIC "-//W3C//DTD SVG 1.1//EN" "http://www.w3.org/Graphics/SVG/1.1/DTD/svg11.dtd">
<svg version="1.1" id="Layer_1" xmlns="http://www.w3.org/2000/svg" xmlns:xlink="http://www.w3.org/1999/xlink" x="0px" y="0px"
	 viewBox="0 0 120 120" enable-background="new 0 0 120 120" xml:space="preserve">
<path id="base" fill-rule="evenodd" clip-rule="evenodd" fill="#999999" d="M59.996,86.52c-14.359,0-26.001-11.641-26.001-26.001
	s11.641-26.001,26.001-26.001c14.361,0,26.001,11.641,26.001,26.001S74.357,86.52,59.996,86.52L59.996,86.52z M59.996,38.513
	c-12.152,0-22.005,9.846-22.005,21.992c0,12.144,9.853,21.99,22.005,21.99c12.154,0,22.006-9.846,22.006-21.99
	C82.002,48.359,72.15,38.513,59.996,38.513L59.996,38.513z"/>
<polygon id="exit_00" fill-rule="evenodd" clip-rule="evenodd" fill="#999999" points="57.978,85.507 61.991,85.507 61.991,100.494 
	57.978,100.494 57.978,85.507 "/>
<polygon id="exit_01" fill-rule="evenodd" clip-rule="evenodd" fill="#999999" points="82.217,95.003 78.769,96.996 70.776,83.152 
	74.225,81.16 82.217,95.003 "/>
<polygon id="exit_02" fill-rule="evenodd" clip-rule="evenodd" fill="#999999" points="96.503,79.273 94.509,82.731 80.664,74.733 
	82.659,71.274 96.503,79.273 "/>
<polygon id="exit_03" fill-rule="evenodd" clip-rule="evenodd" fill="#999999" points="100.993,58.491 100.993,62.504 
	85.007,62.504 85.007,58.491 100.993,58.491 "/>
<polygon id="exit_04" fill-rule="evenodd" clip-rule="evenodd" fill="#999999" points="94.504,38.271 96.495,41.729 82.651,49.743 
	80.66,46.285 94.504,38.271 "/>
<polygon id="exit_05" fill-rule="evenodd" clip-rule="evenodd" fill="#999999" points="78.761,23.996 82.219,25.991 74.221,39.836 
	70.761,37.841 78.761,23.996 "/>
<polygon id="exit_06" fill-rule="evenodd" clip-rule="evenodd" fill="#999999" points="57.978,19.506 61.991,19.506 61.991,35.493 
	57.978,35.493 57.978,19.506 "/>
<polygon id="exit_07" fill-rule="evenodd" clip-rule="evenodd" fill="#999999" points="49.205,37.85 45.773,39.826 37.775,26.009 
	41.207,24.032 49.205,37.85 "/>
<polygon id="exit_08" fill-rule="evenodd" clip-rule="evenodd" fill="#999999" points="39.348,46.292 37.352,49.751 23.481,41.736 
	25.477,38.278 39.348,46.292 "/>
<polygon id="exit_09" fill-rule="evenodd" clip-rule="evenodd" fill="#999999" points="34.993,58.491 34.993,62.504 19.007,62.504 
	19.007,58.491 34.993,58.491 "/>
<polygon id="exit_10" fill-rule="evenodd" clip-rule="evenodd" fill="#999999" points="37.338,71.295 39.314,74.727 25.496,82.725 
	23.52,79.293 37.338,71.295 "/>
<polygon id="exit_11" fill-rule="evenodd" clip-rule="evenodd" fill="#999999" points="45.779,81.15 49.239,83.146 41.223,97.018 
	37.765,95.023 45.779,81.15 "/>
<path id="exit_num" fill-rule="evenodd" clip-rule="evenodd" fill="none" d="M70.776,83.152"/>
</svg>
