<?xml version="1.0" encoding="utf-8"?>
<!-- Generator: Adobe Illustrator 17.1.0, SVG Export Plug-In . SVG Version: 6.00 Build 0)  -->
<!DOCTYPE svg PUBLIC "-//W3C//DTD SVG 1.1//EN" "http://www.w3.org/Graphics/SVG/1.1/DTD/svg11.dtd">
<svg version="1.1" id="Layer_1" xmlns="http://www.w3.org/2000/svg" xmlns:xlink="http://www.w3.org/1999/xlink" x="0px" y="0px"
	 viewBox="0 0 120 120" enable-background="new 0 0 120 120" xml:space="preserve">
<path id="phase11" fill-rule="evenodd" clip-rule="evenodd" fill="#FFFFFF" d="M81.034,82.758l3.408,5.903l3.675-2.122
	c0.907-0.524,2.003,0.285,1.77,1.306l-3.346,14.687c-0.155,0.681-0.857,1.086-1.524,0.88l-14.391-4.446
	c-1.001-0.309-1.153-1.662-0.246-2.186l2.81-1.622L66.618,83.78c-1.529-2.652-0.605-6.185,1.947-7.947l0,0
	c5.965-3.234,9.899-9.739,9.391-17.11c-0.591-8.569-7.368-15.666-15.905-16.61C51.192,40.912,42,49.383,42,59.999
	c0,9.026,6.65,16.476,15.312,17.778l0,0c1.264,0.259,3.213,2.726,4.268,5.213c1.108,2.047,2.381,4.398,3.416,6.307
	c1.891,2.905,2.005,4.307,2.002,5.077c-0.002,1.483-0.005,9.092-0.005,9.092H53.997V90.414
	c-14.964-2.937-26.069-16.635-24.914-32.707c1.096-15.247,13.466-27.578,28.716-28.63C75.916,27.826,91,42.151,91,59.999
	C91,68.998,87.158,77.095,81.034,82.758L81.034,82.758z"/>
<path id="phase10" fill-rule="evenodd" clip-rule="evenodd" fill="none" d="M103.032,85.04l-14.687,3.346
	c-1.021,0.233-1.829-0.863-1.306-1.77l1.895-3.283l-10.777-6.222c-2.726-1.574-3.765-5.823-2.279-8.639l0,0
	c1.612-3.015,2.399-6.538,2.034-10.274c-0.82-8.377-7.554-15.195-15.924-16.092C51.156,40.945,42,49.403,42,59.999
	c0,9.942,8.273,18.008,18.214,18.008c0.014,0-0.131,0,0,0c3.259,0,6.779,2.622,6.779,5.848v19.611H53.997V90.414
	c-14.964-2.937-26.069-16.635-24.914-32.707c1.096-15.247,13.466-27.578,28.716-28.63C75.916,27.826,91,42.151,91,59.999
	c0,3.054-0.458,5.996-1.281,8.781l5.714,3.299l1.848-3.201c0.524-0.907,1.877-0.755,2.186,0.246l4.446,14.391
	C104.118,84.183,103.713,84.885,103.032,85.04z"/>
<path id="phase9" fill-rule="evenodd" clip-rule="evenodd" fill="#FFFFFF" d="M96.994,70.24v-3.244H83.855
	c-3.227,0-5.849-3.521-5.849-6.78c0-0.146,0,0,0,0c0-10.615-9.196-19.302-20.056-18.103c-8.254,0.911-14.927,7.584-15.838,15.838
	c-1.199,10.86,7.485,20.057,18.101,20.057c0,0-0.144,0,0,0c3.259,0,6.779,2.622,6.779,5.848v19.611H53.997V90.414
	c-14.95-2.934-26.049-16.61-24.917-32.663c1.075-15.237,13.427-27.592,28.663-28.67c16.058-1.136,29.741,9.967,32.672,24.921h6.579
	V49.76c0-1.047,1.248-1.592,2.016-0.88l11.047,10.24c0.512,0.475,0.512,1.285,0,1.76L99.01,71.12
	C98.242,71.832,96.994,71.288,96.994,70.24z"/>
<path id="phase8" fill-rule="evenodd" clip-rule="evenodd" fill="#FFFFFF" d="M96.281,50.12l-1.984-3.436L83.78,52.757
	c-2.354,1.36-5.848,1.074-7.757-0.929l0,0c-3.14-6.129-9.684-10.247-17.144-9.794c-8.629,0.523-15.813,7.317-16.765,15.909
	c-1.204,10.863,7.482,20.065,18.1,20.065c0.064,0-0.09,0,0,0c3.259,0,6.779,2.622,6.779,5.848v19.611H53.997V90.414
	C39.049,87.48,27.952,73.809,29.079,57.76c1.085-15.45,13.758-27.888,29.224-28.715c9.473-0.506,18.062,3.257,24.065,9.52
	L87.8,35.43l-1.759-3.047c-0.524-0.907,0.285-2.003,1.306-1.77l14.686,3.346c0.681,0.155,1.086,0.857,0.88,1.524l-4.446,14.391
	C98.158,50.875,96.805,51.027,96.281,50.12z"/>
<path id="phase7" fill-rule="evenodd" clip-rule="evenodd" fill="#FFFFFF" d="M83.74,31.512l-6.253,10.83
	c-1.512,2.618-5.33,3.574-8.117,2.312l0,0c-3.3-2.019-7.283-3.032-11.541-2.524c-8.247,0.984-14.874,7.686-15.73,15.948
	C40.98,68.881,49.709,78.01,60.285,78.01c0.147,0,0,0,0,0c0.002,0-0.002,0,0,0c3.26,0,6.707,2.62,6.707,5.846v19.61H53.997V90.412
	c-14.831-2.912-25.871-16.389-24.943-32.274c0.842-14.413,11.791-26.512,26.053-28.753c5.02-0.789,9.839-0.331,14.241,1.065
	l3.137-5.436l-3.106-1.793c-0.907-0.524-0.755-1.877,0.246-2.186l14.391-4.446c0.667-0.206,1.369,0.199,1.524,0.88l3.345,14.686
	c0.233,1.021-0.863,1.829-1.77,1.306L83.74,31.512L83.74,31.512z"/>
<path id="phase6" fill-rule="evenodd" clip-rule="evenodd" fill="#FFFFFF" d="M66.996,23.006v13.139c0,3.227-3.521,5.849-6.78,5.849
	c-0.146,0,0,0,0,0C50.276,41.993,42,50.059,42,59.999c0,9.942,8.273,18.008,18.214,18.008c0,0-0.144,0,0,0
	c3.259,0,6.779,2.622,6.779,5.848v19.611H53.997V90.414C39.75,87.617,29,75.066,29,59.999s10.753-27.621,25.001-30.414v-6.579H49.76
	c-1.047,0-1.592-1.248-0.88-2.016l10.24-11.047c0.475-0.512,1.285-0.512,1.76,0L71.12,20.99c0.712,0.768,0.167,2.016-0.88,2.016
	H66.996L66.996,23.006z"/>
<path id="phase5" fill-rule="evenodd" clip-rule="evenodd" fill="#FFFFFF" d="M53.997,103.466V90.414
	C39.75,87.617,29,75.066,29,59.999c0-9.234,4.045-17.513,10.451-23.188l-3.092-5.357l-3.476,2.007
	c-0.907,0.524-2.003-0.285-1.77-1.306l3.346-14.687c0.155-0.681,0.857-1.086,1.524-0.88l14.393,4.446
	c1.001,0.309,1.153,1.662,0.246,2.186l-3.009,1.737l6.143,10.639c1.579,2.735,0.295,6.936-2.417,8.626l0,0
	C45.775,47.283,42,53.199,42,59.999c0,9.942,8.273,18.008,18.214,18.008c0,0-0.144,0,0,0c3.259,0,6.779,2.622,6.779,5.848v19.611
	H53.997L53.997,103.466z"/>
<path id="phase4" fill-rule="evenodd" clip-rule="evenodd" fill="#FFFFFF" d="M53.997,103.466V90.414
	C39.75,87.617,29,75.066,29,59.999c0-3.23,0.508-6.34,1.427-9.268l-5.612-3.24l-2.096,3.63c-0.524,0.907-1.877,0.755-2.186-0.246
	l-4.447-14.391c-0.206-0.667,0.199-1.369,0.88-1.524l14.688-3.346c1.021-0.233,1.829,0.863,1.306,1.77l-1.647,2.853l10.655,6.15
	c2.532,1.464,3.953,5.202,2.855,7.96l0,0C43.044,53.138,42,56.444,42,59.999c0,9.942,8.273,18.008,18.214,18.008c0,0-0.144,0,0,0
	c3.259,0,6.779,2.622,6.779,5.848v19.611H53.997L53.997,103.466z"/>
<path id="phase3" fill-rule="evenodd" clip-rule="evenodd" fill="#FFFFFF" d="M53.997,103.466V90.414
	c-12.304-2.415-21.982-12.112-24.397-24.415h-6.593v4.242c0,1.047-1.248,1.592-2.016,0.88L9.943,60.881
	c-0.512-0.475-0.512-1.285,0-1.76L20.99,48.88c0.768-0.712,2.016-0.167,2.016,0.88v3.244h13.139c3.227,0,5.849,3.52,5.849,6.779
	c0,0.111,0-0.035,0,0c0,9.942,8.28,18.224,18.22,18.224c0.086,0-0.058,0,0,0c3.259,0,6.779,2.622,6.779,5.848v19.611H53.997
	L53.997,103.466z"/>
<path id="phase2" fill-rule="evenodd" clip-rule="evenodd" fill="#FFFFFF" d="M53.997,103.466V90.417
	c-6.51-1.278-12.266-4.617-16.624-9.281l-5.367,3.099l1.953,3.381c0.524,0.907-0.284,2.003-1.306,1.77l-14.686-3.346
	c-0.681-0.155-1.086-0.857-0.88-1.524l4.446-14.392c0.309-1.001,1.662-1.153,2.186-0.246l1.79,3.101l10.586-6.111
	c2.634-1.52,6.531-0.424,8.304,2.094l0,0l0,0c3.105,5.389,9.141,9.038,15.805,9.045c0,0-0.151,0,0,0
	c3.259,0,6.789,2.623,6.789,5.849v19.611H53.997L53.997,103.466z"/>
<path id="phase1" fill-rule="evenodd" clip-rule="evenodd" fill="#FFFFFF" d="M53.997,103.466V90.409
	c-1.091-0.215-2.152-0.503-3.198-0.828l-3.161,5.477l2.984,1.723c0.907,0.524,0.755,1.877-0.246,2.186l-14.391,4.446
	c-0.667,0.206-1.369-0.199-1.524-0.88l-3.346-14.687c-0.233-1.021,0.863-1.829,1.77-1.306l3.499,2.02l6.004-10.402
	c1.481-2.562,6.268-3.483,9.036-2.329l0,0c2.545,1.38,5.684,2.175,8.781,2.178c0,0-0.151,0,0,0c3.259,0,6.789,2.623,6.789,5.849
	v19.611H53.997L53.997,103.466z"/>
<path id="phase0" fill-rule="evenodd" clip-rule="evenodd" fill="#FFFFFF" d="M66.999,90.191v6.803h3.241
	c1.047,0,1.592,1.248,0.88,2.016l-10.24,11.047c-0.475,0.512-1.285,0.512-1.76,0L48.88,99.01c-0.712-0.768-0.167-2.016,0.88-2.016
	h4.243V83.855c0-2.98,2.858-5.505,5.857-5.863l0,0c0.07,0.002-0.07,0,0,0c10.615,0,19.222-9.179,18.027-20.036
	c-0.908-8.254-7.577-14.927-15.83-15.843C51.196,40.909,42,49.38,42,59.999c0,4.867,2.038,9.377,5.174,12.615l0,0l0,0
	c2.282,2.282,1.993,6.667-0.313,8.973c-1.783,1.782-4.627,2.404-6.882,1.547c0,0-1.289-0.632-1.79-1.129
	c-0.006-0.006,0.006,0.006,0,0l0,0c-6.089-6.039-9.707-14.589-9.128-23.97c0.95-15.383,13.369-27.903,28.745-28.96
	C75.92,27.83,91,42.154,91,59.999C91,74.712,80.747,87.017,66.999,90.191L66.999,90.191z"/>
</svg>
