<?xml version="1.0" encoding="utf-8"?>
<!-- Generator: Adobe Illustrator 17.1.0, SVG Export Plug-In . SVG Version: 6.00 Build 0)  -->
<!DOCTYPE svg PUBLIC "-//W3C//DTD SVG 1.1//EN" "http://www.w3.org/Graphics/SVG/1.1/DTD/svg11.dtd">
<svg version="1.1" id="Layer_1" xmlns="http://www.w3.org/2000/svg" xmlns:xlink="http://www.w3.org/1999/xlink" x="0px" y="0px"
	 viewBox="0 0 120 120" enable-background="new 0 0 120 120" xml:space="preserve">
<path id="phase11" fill-rule="evenodd" clip-rule="evenodd" fill="#FFFFFF" d="M66.003,90.414v13.052H53.007
	c0,0-0.003-7.609-0.005-9.092c-0.003-0.77,0.111-2.172,2.002-5.077c1.035-1.909,2.308-4.26,3.416-6.307
	c1.054-2.487,3.004-4.953,4.268-5.213l0,0c9.183-1.378,16.101-9.667,15.24-19.416c-0.744-8.414-7.461-15.308-15.856-16.246
	C51.204,40.902,42,49.376,42,59.999c0,6.842,3.816,12.788,9.435,15.834l0,0c2.553,1.762,3.477,5.295,1.947,7.947l-6.571,11.379
	l2.81,1.622c0.907,0.524,0.755,1.877-0.246,2.186l-14.391,4.446c-0.667,0.206-1.369-0.199-1.524-0.88l-3.346-14.687
	c-0.233-1.021,0.863-1.829,1.77-1.306l3.675,2.122l3.406-5.903c-6.462-5.975-10.381-14.658-9.929-24.254
	c0.732-15.567,13.213-28.353,28.76-29.427C75.914,27.825,91,42.15,91,59.999C91,75.066,80.25,87.617,66.003,90.414L66.003,90.414z"
	/>
<path id="phase10" fill-rule="evenodd" clip-rule="evenodd" fill="#FFFFFF" d="M66.003,90.414v13.052H53.007V83.855
	c0-3.225,3.518-5.848,6.778-5.848c0.131,0-0.013,0,0,0c10.615,0,19.297-9.194,18.102-20.05c-0.908-8.254-7.577-14.927-15.83-15.843
	C51.196,40.909,42,49.38,42,59.999c0,3.065,0.789,5.962,2.139,8.487c0,0-0.021-0.037,0,0c1.63,2.823,0.705,7.304-2.088,8.917
	l-10.807,6.24l1.717,2.973c0.524,0.907-0.285,2.003-1.306,1.77L16.967,85.04c-0.681-0.155-1.086-0.857-0.88-1.524l4.447-14.392
	c0.309-1.001,1.662-1.153,2.186-0.246l2.027,3.511l5.641-3.257c-1.233-3.991-1.707-8.315-1.165-12.828
	C31.018,41.36,43.59,29.679,58.626,29.03C76.373,28.264,91,42.423,91,59.999C91,75.066,80.25,87.617,66.003,90.414L66.003,90.414z"
	/>
<path id="phase9" fill-rule="evenodd" clip-rule="evenodd" fill="#FFFFFF" d="M66.003,90.414v13.052H53.007V83.855
	c0-3.225,3.518-5.848,6.778-5.848c0.144,0,0,0,0,0c10.615,0,19.297-9.194,18.102-20.05c-0.908-8.254-7.577-14.927-15.83-15.843
	c-10.862-1.205-20.064,7.483-20.064,18.102c0,0,0-0.146,0,0c0,3.259-2.622,6.78-5.849,6.78H23.006v3.244
	c0,1.047-1.248,1.592-2.016,0.88L9.943,60.879c-0.512-0.475-0.512-1.285,0-1.76l11.047-10.24c0.768-0.712,2.016-0.167,2.016,0.88
	v4.242h6.579c2.932-14.957,16.621-26.062,32.681-24.921c15.235,1.083,27.584,13.44,28.655,28.676
	C92.049,73.807,80.952,87.48,66.003,90.414L66.003,90.414z"/>
<path id="phase8" fill-rule="evenodd" clip-rule="evenodd" fill="#FFFFFF" d="M66.003,90.414v13.052H53.007V83.855
	c0-3.225,3.537-5.844,6.798-5.844c0.09,0-0.09-0.003,0,0l0,0c0.064,0-0.064,0,0,0c10.618,0,19.283-9.203,18.082-20.065
	c-0.909-8.215-7.524-14.867-15.734-15.821c-7.885-0.916-14.884,3.277-18.168,9.687l0,0c-1.885,2.133-5.503,2.554-7.931,1.153
	l-10.482-6.052l-1.853,3.208c-0.524,0.907-1.877,0.755-2.186-0.246l-4.446-14.391c-0.206-0.667,0.199-1.369,0.88-1.524l14.687-3.346
	c1.021-0.233,1.829,0.863,1.306,1.77l-1.891,3.276l5.376,3.102c5.984-6.356,14.608-10.196,24.134-9.722
	c15.511,0.772,28.251,13.222,29.342,28.714C92.051,73.805,80.953,87.479,66.003,90.414L66.003,90.414z"/>
<path id="phase7" fill-rule="evenodd" clip-rule="evenodd" fill="#FFFFFF" d="M66.003,90.41v13.056H53.007v-19.61
	c0-3.228,3.445-5.859,6.704-5.859l0,0c0.147,0.003-0.148,0,0,0c10.574,0,19.309-9.117,18.189-19.919
	c-0.856-8.261-7.481-14.964-15.727-15.949c-4.26-0.509-8.246,0.505-11.545,2.524l0,0c-2.811,1.408-6.811,0.419-8.366-2.271
	l-6.209-10.754l-3.169,1.83c-0.907,0.524-2.003-0.284-1.77-1.306l3.346-14.686c0.155-0.681,0.857-1.086,1.524-0.88l14.392,4.445
	c1.001,0.309,1.153,1.662,0.246,2.186l-3.313,1.913l3.112,5.391c3.614-1.179,7.516-1.717,11.58-1.458
	C77.443,30.05,89.984,42.586,90.939,58.03C91.924,73.963,80.867,87.493,66.003,90.41L66.003,90.41z"/>
<path id="phase6" fill-rule="evenodd" clip-rule="evenodd" fill="#FFFFFF" d="M91,59.999c0,15.067-10.749,27.618-24.996,30.414
	v13.052H53.007V83.855c0-3.225,3.522-6.01,6.778-5.848c0.229,0.011,0,0,0,0C69.728,78.007,78,69.941,78,59.999
	c0-9.941-8.275-18.006-18.217-18.006c0,0,0.146,0,0,0c-3.259,0-6.779-2.622-6.779-5.849V23.006h-3.615
	c-1.047,0-1.592-1.248-0.88-2.016L58.75,9.943c0.475-0.512,1.285-0.512,1.76,0L70.75,20.99c0.712,0.768,0.167,2.016-0.88,2.016
	h-3.871v6.579C80.249,32.378,91,44.932,91,59.999L91,59.999z"/>
<path id="phase5" fill-rule="evenodd" clip-rule="evenodd" fill="#FFFFFF" d="M80.567,36.828C86.962,42.506,91,50.776,91,59.999
	c0,15.067-10.749,27.618-24.996,30.414v13.052H53.007V83.855c0-3.225,3.518-5.848,6.778-5.848c0.144,0,0,0,0,0
	C69.728,78.007,78,69.941,78,59.999c0-6.8-3.775-12.716-9.34-15.778l0,0c-2.703-1.691-4.036-5.769-2.458-8.501l6.207-10.751
	l-3.031-1.75c-0.907-0.524-0.755-1.877,0.246-2.186l14.392-4.446c0.667-0.206,1.369,0.199,1.524,0.88l3.345,14.686
	c0.233,1.021-0.863,1.829-1.77,1.306l-3.452-1.993L80.567,36.828L80.567,36.828z"/>
<path id="phase4" fill-rule="evenodd" clip-rule="evenodd" fill="#FFFFFF" d="M97.28,51.122l-2.074-3.59l-5.62,3.245
	C90.497,53.691,91,56.785,91,59.999c0,15.067-10.749,27.618-24.996,30.414v13.052H53.007V83.855c0-3.225,3.518-5.848,6.778-5.848
	c0.144,0,0,0,0,0C69.728,78.007,78,69.941,78,59.999c0-3.555-1.046-6.861-2.825-9.652l0,0c-1.049-2.747,0.226-6.387,2.732-7.835
	l10.802-6.235l-1.67-2.893c-0.524-0.907,0.285-2.003,1.306-1.77l14.687,3.346c0.681,0.155,1.086,0.857,0.88,1.524l-4.446,14.391
	C99.157,51.877,97.804,52.029,97.28,51.122z"/>
<path id="phase3" fill-rule="evenodd" clip-rule="evenodd" fill="#FFFFFF" d="M96.994,70.24v-4.242h-6.593
	c-2.415,12.303-12.093,22-24.397,24.415v13.052H53.007V83.855c0-3.225,3.518-5.848,6.778-5.848c0.058,0-0.086,0,0,0
	c9.942,0,18.221-8.282,18.221-18.224c0-0.035,0,0.111,0,0c0-3.259,2.622-6.779,5.849-6.779h13.139V49.76
	c0-1.047,1.248-1.592,2.016-0.88l11.047,10.241c0.512,0.475,0.512,1.285,0,1.76L99.01,71.121
	C98.242,71.832,96.994,71.288,96.994,70.24z"/>
<path id="phase2" fill-rule="evenodd" clip-rule="evenodd" fill="#FFFFFF" d="M86.04,87.617l1.542-2.671l-5.517-3.185
	c-4.284,4.345-9.835,7.433-16.062,8.655v13.051H53.007V83.855c0-3.225,3.528-5.849,6.789-5.849c0.151,0,0,0,0,0
	c6.667-0.008,12.708-3.662,15.813-9.049l0,0l0,0c1.896-2.087,5.477-2.767,7.878-1.382l10.592,6.116l2.202-3.814
	c0.524-0.907,1.877-0.755,2.186,0.246l4.446,14.392c0.206,0.667-0.199,1.369-0.88,1.524l-14.687,3.346
	C86.325,89.619,85.517,88.524,86.04,87.617z"/>
<path id="phase1" fill-rule="evenodd" clip-rule="evenodd" fill="#FFFFFF" d="M84.015,103.412l-14.392-4.446
	c-1.001-0.309-1.153-1.662-0.246-2.186l2.75-1.588l-3.19-5.525c-0.961,0.288-1.936,0.545-2.934,0.74v13.059H53.007V83.855
	c0-3.225,3.528-5.897,6.789-5.849c0.18,0.003,0,0,0,0c3.099-0.003,6.238-0.798,8.781-2.178l0,0c2.779-1.2,7.083-0.506,8.576,2.079
	l6.228,10.788l3.734-2.156c0.907-0.524,2.003,0.285,1.77,1.306l-3.346,14.687C85.384,103.213,84.683,103.618,84.015,103.412z"/>
<path id="phase0" fill-rule="evenodd" clip-rule="evenodd" fill="#FFFFFF" d="M81.623,82.178L81.623,82.178
	c-2.398,2.398-6.701,1.192-8.485-0.59c-2.305-2.306-2.593-6.692-0.312-8.974l0,0l0,0c3.551-3.665,5.665-8.931,5.072-14.563
	c-0.874-8.29-7.539-15.009-15.824-15.935C51.204,40.901,42,49.375,42,59.999C42,69.941,50.059,78,59.999,78c0.07,0,0,0,0,0
	c3,0.357,5.998,2.875,5.998,5.855v13.139h4.243c1.047,0,1.592,1.248,0.88,2.016l-10.241,11.047c-0.475,0.512-1.285,0.512-1.76,0
	L48.879,99.01c-0.712-0.768-0.167-2.016,0.88-2.016h3.241v-6.803C38.87,86.928,28.431,74.019,29.024,58.763
	c0.609-15.669,13.124-28.603,28.767-29.686C75.912,27.822,91,42.149,91,59.999C91,68.604,87.284,76.561,81.623,82.178L81.623,82.178
	z"/>
</svg>
